<svg xmlns="http://www.w3.org/2000/svg"
  width="495" height="162"
  viewBox="0 0 495 162"
  role="img"
  aria-label="Top programming languages for jorgelol20">

  <title>Top Languages – jorgelol20</title>

  <style>
    .card      { fill: #161b22; stroke: #30363d; stroke-width: 1; }
    .title     { font: 600 14px -apple-system, BlinkMacSystemFont, 'Segoe UI', sans-serif; fill: #00D9FF; }
    .updated   { font: 400 10px -apple-system, BlinkMacSystemFont, 'Segoe UI', sans-serif; fill: #484f58; }
    .lang-name { font: 500 11px -apple-system, BlinkMacSystemFont, 'Segoe UI', sans-serif; fill: #c9d1d9; }
    .lang-pct  { font: 600 11px -apple-system, BlinkMacSystemFont, 'Segoe UI', sans-serif; fill: #8b949e; }
  </style>

  <defs>
    <!-- Clip all bar segments to the rounded bar shape -->
    <clipPath id="bar-clip">
      <rect x="20" y="52" width="455" height="10" rx="5" />
    </clipPath>
  </defs>

  <!-- Card background -->
  <rect width="495" height="162" rx="6" ry="6" class="card" />

  <!-- Title -->
  <text x="20" y="30" class="title">⚡ Languages Used</text>

  <!-- Last updated -->
  <text x="475" y="30" class="updated" text-anchor="end">Updated Mar 6, 2026</text>

  <!-- Stacked bar background track -->
  <rect x="20" y="52" width="455" height="10" rx="5" fill="#21262d" />

  <!-- Stacked bar segments (clipped to rounded track) -->
  <g clip-path="url(#bar-clip)">
    <rect x="20.00" y="52" width="430.71" height="10" fill="#f1e05a" />
    <rect x="450.71" y="52" width="22.68" height="10" fill="#b07219" />
    <rect x="473.39" y="52" width="2.00" height="10" fill="#563d7c" />
    <rect x="475.39" y="52" width="2.00" height="10" fill="#e34c26" />
    <rect x="477.39" y="52" width="2.00" height="10" fill="#8b949e" />
    <rect x="479.39" y="52" width="2.00" height="10" fill="#4F5D95" />
    <rect x="481.39" y="52" width="2.00" height="10" fill="#384d54" />
  </g>

  <!-- Legend -->
  
    <g transform="translate(20, 76)">
      <circle cx="5" cy="5" r="5" fill="#f1e05a" />
      <text x="14" y="9" class="lang-name">JavaScript</text>
      <text x="14" y="9" class="lang-pct" dx="72">94.66%</text>
    </g>
    <g transform="translate(171.66666666666666, 76)">
      <circle cx="5" cy="5" r="5" fill="#b07219" />
      <text x="14" y="9" class="lang-name">Java</text>
      <text x="14" y="9" class="lang-pct" dx="28.8">4.99%</text>
    </g>
    <g transform="translate(323.3333333333333, 76)">
      <circle cx="5" cy="5" r="5" fill="#563d7c" />
      <text x="14" y="9" class="lang-name">CSS</text>
      <text x="14" y="9" class="lang-pct" dx="21.6">0.30%</text>
    </g>
    <g transform="translate(20, 98)">
      <circle cx="5" cy="5" r="5" fill="#e34c26" />
      <text x="14" y="9" class="lang-name">HTML</text>
      <text x="14" y="9" class="lang-pct" dx="28.8">0.04%</text>
    </g>
    <g transform="translate(171.66666666666666, 98)">
      <circle cx="5" cy="5" r="5" fill="#8b949e" />
      <text x="14" y="9" class="lang-name">Hack</text>
      <text x="14" y="9" class="lang-pct" dx="28.8">0.01%</text>
    </g>
    <g transform="translate(323.3333333333333, 98)">
      <circle cx="5" cy="5" r="5" fill="#4F5D95" />
      <text x="14" y="9" class="lang-name">PHP</text>
      <text x="14" y="9" class="lang-pct" dx="21.6">0.01%</text>
    </g>
    <g transform="translate(20, 120)">
      <circle cx="5" cy="5" r="5" fill="#384d54" />
      <text x="14" y="9" class="lang-name">Dockerfile</text>
      <text x="14" y="9" class="lang-pct" dx="72">0.00%</text>
    </g>
</svg>